<?xml version="1.0" encoding="utf-8"?>
<!-- Generator: Adobe Illustrator 23.0.3, SVG Export Plug-In . SVG Version: 6.00 Build 0)  -->
<svg version="1.1" xmlns="http://www.w3.org/2000/svg" xmlns:xlink="http://www.w3.org/1999/xlink" x="0px" y="0px"
	 viewBox="0 0 526 521" style="enable-background:new 0 0 526 521;" xml:space="preserve">
<style type="text/css">
	.st0{fill:#CCCCCC;}
	.st1{opacity:0.08;fill:#00FF00;stroke:#000000;stroke-miterlimit:10;}
	.st2{fill:#F9C4A7;}
	.st3{fill:#4D4D4D;}
	.st4{fill:#FFFFFF;}
	.st5{font-family:'MyriadPro-Regular';}
	.st6{font-size:24px;}
	.st7{stroke:#000000;stroke-width:4;stroke-miterlimit:10;}
	.st8{fill:#8C6239;}
	.st9{stroke:#000000;stroke-miterlimit:10;}
	.st10{fill:none;}
	.st11{display:none;}
	.st12{opacity:0.14;stroke:#000000;stroke-miterlimit:10;}
</style>
<g id="Cadre_et_décor">
	<rect x="112" y="155.5" class="st0" width="28" height="115"/>
	<rect x="71" y="114.5" class="st0" width="21" height="170"/>
	<path class="st0" d="M403,203.5v276.88c-5.84,3.67-11.85,7.12-18,10.32c-2.12,1.11-4.26,2.19-6.41,3.24
		c-2.4,1.17-4.82,2.31-7.26,3.41c-10.7,4.82-21.78,8.95-33.19,12.32c-2.43,0.72-4.88,1.41-7.35,2.06
		c-3.89,1.03-7.83,1.98-11.79,2.83c-1.66,0.36-3.33,0.7-5,1.02c-0.33,0.07-0.67,0.14-1,0.2c-15.6,2.99-31.69,4.6-48.14,4.71
		c-0.62,0.01-1.24,0.01-1.86,0.01c-4.27,0-8.51-0.1-12.73-0.3c-14.78-0.7-29.23-2.61-43.27-5.64c-1.67-0.36-3.34-0.73-5-1.13
		c-4.76-1.12-9.48-2.38-14.14-3.76c-0.31-0.09-0.63-0.19-0.94-0.28c-13.68-4.1-26.88-9.28-39.51-15.45
		c-0.39-0.19-0.78-0.38-1.16-0.57c-1.93-0.95-3.85-1.93-5.75-2.94c-2.19-1.13-4.35-2.31-6.5-3.52V203.5H403z"/>
	<rect x="163" y="133.5" class="st0" width="86" height="101"/>
	<rect x="308" y="86.5" class="st0" width="51" height="139"/>
	<path class="st0" d="M140.5,265v225.43c-2.19-1.13-4.35-2.31-6.5-3.52C55.67,442.97,2.35,360.24,0.55,265H140.5z"/>
	<path class="st0" d="M497,276.5v101.67c-3.68,7.16-7.68,14.14-12,20.9c-20.89,32.77-48.95,60.6-82,81.31
		c-5.84,3.67-11.85,7.12-18,10.32V276.5H497z"/>
	<path class="st0" d="M515.77,330.5c-4.69,16.62-11.01,32.57-18.77,47.67c-3.68,7.16-7.68,14.14-12,20.9V330.5H515.77z"/>
	<polygon class="st0" points="333.63,32.5 359,86.5 308.26,86.5 	"/>
	<rect x="479" y="209.5" class="st0" width="18" height="86"/>
	<rect x="431" y="190.5" class="st0" width="23" height="105"/>
	<path class="st1" d="M525.5,260c0,24.43-3.39,48.08-9.73,70.5c-4.69,16.62-11.01,32.57-18.77,47.67c-3.68,7.16-7.68,14.14-12,20.9
		c-20.89,32.77-48.95,60.6-82,81.31c-5.84,3.67-11.85,7.12-18,10.32c-2.12,1.11-4.26,2.19-6.41,3.24c-2.4,1.17-4.82,2.31-7.26,3.41
		c-10.7,4.82-21.78,8.95-33.19,12.32c-2.43,0.72-4.88,1.41-7.35,2.06c-3.89,1.03-7.83,1.98-11.79,2.83c-1.99,0.43-3.99,0.83-6,1.22
		c-14.49,2.78-29.39,4.36-44.62,4.66c-1.17,0.03-2.35,0.04-3.52,0.05c-0.62,0.01-1.24,0.01-1.86,0.01c-4.27,0-8.51-0.1-12.73-0.3
		c-14.78-0.7-29.23-2.61-43.27-5.64c-1.67-0.36-3.34-0.73-5-1.13c-4.76-1.12-9.48-2.38-14.14-3.76c-0.31-0.09-0.63-0.19-0.94-0.28
		c-13.68-4.1-26.88-9.28-39.51-15.45c-0.39-0.19-0.78-0.38-1.16-0.57c-1.93-0.95-3.85-1.93-5.75-2.94c-2.19-1.13-4.35-2.31-6.5-3.52
		C56.02,443.16,2.82,360.97,0.58,266.26c-0.01-0.42-0.02-0.84-0.03-1.26c-0.03-1.66-0.05-3.33-0.05-5C0.5,116.14,118.03,0.5,263,0.5
		S525.5,116.14,525.5,260z"/>
</g>
<g id="Corps">
	<path class="st2" d="M196,358.5l-6.3,54.4l-0.66,5.72l-0.25,10.89l-1.87,79.88c-13.68-4.1-26.88-9.28-39.51-15.45
		c-0.39-0.19-0.78-0.38-1.16-0.57l-6-110.99l-0.25-4.62l0.3-0.1L196,358.5z"/>
	<path class="st2" d="M377.7,379.6l-0.12,2.27l-6.25,115.48c-10.7,4.82-21.78,8.95-33.19,12.32c-2.43,0.72-4.88,1.41-7.35,2.06
		l-2.13-91.27l-0.07-0.62v-0.02l-0.59-5.07v-0.01l-6.3-54.4l55.7,19.16h0.01L377.7,379.6z"/>
	<rect x="228" y="311.5" class="st3" width="60" height="77"/>
	<path class="st3" d="M200,472.15l50.92,48.34c0.62,0.01,1.24,0.01,1.86,0.01c4.27,0,8.51-0.1,12.73-0.3
		c14.78-0.7,29.23-2.61,43.27-5.64c1.67-0.36,3.34-0.73,5-1.13V483.5l2.47-10.08l0.31-1.27l10.43-42.62v-0.02l3.09-12.61v-0.01
		c0.92-3.73,1.82-7.52,2.7-11.39c1.08-4.75,2.07-9.41,3-14c2.1-1.07,5.54-2.68,10-4c5.09-1.51,8.33-1.7,17-3
		c2.91-0.44,7.32-1.13,12.75-2.12c1.31-0.24,2.63-0.48,3.94-0.72h0.01l6.3-1.16c-1.84-10.05-6.4-26.47-19-42
		c-4.33-5.34-8.83-9.61-13-13c-6.79-3.2-14.81-6.39-24-9c-16.22-4.61-30.73-5.91-42-6c-9.83,18.11-19.67,36.22-29.5,54.33l-0.5,0.92
		L200,472.15z"/>
	<path class="st3" d="M315.78,472.15l-50.92,48.34c-0.62,0.01-1.24,0.01-1.86,0.01c-4.27,0-8.51-0.1-12.73-0.3
		c-14.78-0.7-29.23-2.61-43.27-5.64c-1.67-0.36-3.34-0.73-5-1.13V483.5l-2.47-10.08l-0.31-1.27l-10.43-42.62v-0.02l-3.09-12.61
		v-0.01c-0.92-3.73-1.82-7.52-2.7-11.39c-1.08-4.75-2.07-9.41-3-14c-2.1-1.07-5.54-2.68-10-4c-5.09-1.51-8.33-1.7-17-3
		c-2.91-0.44-7.32-1.13-12.75-2.12c-1.31-0.24-2.63-0.48-3.94-0.72h-0.01l-6.3-1.16c1.84-10.05,6.4-26.47,19-42
		c4.33-5.34,8.83-9.61,13-13c6.79-3.2,14.81-6.39,24-9c16.22-4.61,30.73-5.91,42-6c9.83,18.11,19.67,36.22,29.5,54.33l0.5,0.92
		L315.78,472.15z"/>
	<text transform="matrix(1 0 0 1 200.478 388.5435)" class="st4 st5 st6">Hello World !</text>
</g>
<g id="Tete">
	<g>
		<path class="st2" d="M287.94,312c0,5.8-13.43,10.5-30,10.5s-30-4.7-30-10.5c0-0.17,0.01-0.33,0.04-0.5h-0.37v-81h60v79.95
			C287.83,310.96,287.94,311.47,287.94,312z"/>
	</g>
	<g>
		<ellipse class="st2" cx="257.78" cy="255.5" rx="69.5" ry="40"/>
	</g>
	<polygon class="st2" points="188.28,255.5 181.28,176.5 257.28,155.5 334.28,176.5 327.28,255.5 	"/>
	<ellipse class="st2" cx="257.5" cy="176.5" rx="76.5" ry="39"/>
	<line class="st7" x1="273" y1="201.5" x2="303" y2="201.5"/>
	<path class="st8" d="M212,204.5c-1.06-1.7,7.07-12.89,17-12c9.13,0.82,15.21,11.44,14,13c-0.91,1.17-5.44-3.32-14-4
		C219.02,200.71,212.83,205.84,212,204.5z"/>
	<polygon class="st4" points="233,244.37 233,265.5 292.67,265.5 	"/>
	<path class="st9" d="M235.5,91c-11.29,3.16-31.98,8.96-44,27c-6.97,10.46-0.48,9.21-11,42c-3.85,12-8.04,22.51-3,32
		c1.78,3.36,4.21,5.61,6,7c0.53-5.04,2.06-12.68,7-20c15.55-23.04,50.97-22.35,69-22c19.17,0.37,33,0,50,6
		c19.28,6.81,20.42,26.99,22,30c0.41,0.79,6.06-2.27,8-9c3.55-12.35-0.85-24.35-5-37c-12.6-38.41-14-41-21-46
		c-4.96-3.54-9.25-5.5-18-9c-5-2-14.66-2.93-24-4C266.72,87.45,252.52,86.23,235.5,91z"/>
	<path id="SVGID_x5F_1_x5F_" class="st10" d="M306.13,136.7c24.32,24.83,19.2,69.29-11.44,99.29s-75.19,34.2-99.51,9.36
		s-19.2-69.29,11.44-99.29S281.81,111.86,306.13,136.7z"/>
	<text class="st11">	<textPath  xlink:href="#SVGID_x5F_1_x5F_" startOffset="92.8385%"  style="display:inline;">
<tspan  class="st4 st5" style="font-size:14px;">Mets une div</tspan>	</textPath>
</text>
	<polygon class="st10" points="215.78,120.46 208.74,120.46 208.74,120.46 215.78,120.46 	"/>
	<path class="st3" d="M314,509.5v6.08c-0.33,0.07-0.67,0.14-1,0.2c-15.6,2.99-31.69,4.6-48.14,4.71c-0.62,0.01-1.24,0.01-1.86,0.01
		c-4.27,0-8.51-0.1-12.73-0.3c-14.78-0.7-29.23-2.61-43.27-5.64c-1.67-0.36-3.34-0.73-5-1.13v-3.93H314z"/>
</g>
<g id="Ombre">
	<path class="st12" d="M257.62,520.44c1.17,0.03,2.35,0.04,3.52,0.05c0.62,0.01,1.24,0.01,1.86,0.01c4.27,0,8.51-0.1,12.73-0.3
		c14.78-0.7,29.23-2.61,43.27-5.64c1.67-0.36,3.34-0.73,5-1.13c4.76-1.12,9.48-2.38,14.14-3.76c0.31-0.09,0.63-0.19,0.94-0.28
		c13.68-4.1,26.88-9.28,39.51-15.45c0.39-0.19,0.78-0.38,1.16-0.57c1.93-0.95,3.85-1.93,5.75-2.94c2.19-1.13,4.35-2.31,6.5-3.52
		c77.98-43.75,131.18-125.94,133.42-220.65L262.5,120L257.62,520.44z"/>
</g>
<g id="Repères" class="st11">
</g>
</svg>
